<?xml version="1.0" encoding="utf-8"?>
<!-- Generator: Adobe Illustrator 26.5.2, SVG Export Plug-In . SVG Version: 6.00 Build 0)  -->
<svg version="1.1" id="Layer_1" xmlns="http://www.w3.org/2000/svg" xmlns:xlink="http://www.w3.org/1999/xlink" x="0px" y="0px"
	 viewBox="0 0 505 388" style="enable-background:new 0 0 505 388;" xml:space="preserve">
<style type="text/css">
	.st0{fill:#FFFFFF;}
</style>
<path class="st0" d="M269.5,378.2c-6.9-2.2-13.1-4.1-19.2-6c-18.6-5.9-37.1-11.8-55.7-17.5c-3.4-1-4.7-2.4-4.7-6.1
	C190,234.6,189.9,120.8,190,7c0-1.5,0.1-2.9,0.2-5.4c15.7,3.9,31.2,7,46.3,11.6c28,8.5,56,17.3,83.6,27c10.2,3.6,19.8,9.5,29,15.5
	c20.2,13.2,32.5,32.2,37.1,55.9c4.3,22.1,5.2,44.3,0,66.4c-0.4,1.6-0.8,3.2-1.3,4.8c-9.8,30.2-34.1,43.7-64.9,35.8
	c-5-1.3-9.7-3.4-14.6-4.9c-3.4-1.1-4.3-3.2-4.3-6.7c0.1-38.3,0.1-76.7-0.1-115c0-5.1-1-10.3-2.3-15.2c-1.6-5.9-5.7-10.1-11.6-12.2
	c-6.9-2.5-12.6-0.5-14.9,6.5c-1.8,5.6-2.5,11.7-2.6,17.6c-0.1,94.2-0.1,188.3-0.1,282.5C269.5,373.3,269.5,375.4,269.5,378.2
	L269.5,378.2z"/>
<path class="st0" d="M284.7,297.4c0-15.8-0.1-30.6,0.2-45.4c0-1.3,2.5-3.4,4.1-3.8c18-4.2,35.8-9.3,54.1-11.9
	c41-5.7,81.1-1,119.9,13.7c8.3,3.1,16.6,7.3,23.6,12.6c12.2,9.3,12.3,22.3,0,31.5c-8.8,6.6-18.7,12.5-29,16.3
	c-56.2,20.7-112.7,40.7-169.1,60.9c-0.9,0.3-1.9,0.5-3.1,0.9c-0.3-0.8-0.7-1.3-0.7-1.9c0-13.5,0-27-0.1-40.5c0-3.5,2.3-4,4.6-4.8
	c37.6-13.4,75.3-26.7,112.9-40.2c6.1-2.2,12.1-4.6,17.9-7.6c2-1,4.6-4.2,4.3-6c-0.4-2.2-3.2-4.7-5.5-5.6c-12.6-4.7-25.8-4.5-38.4-1
	c-18.1,5-35.7,11.6-53.5,17.7C313.1,287.3,299.4,292.2,284.7,297.4L284.7,297.4z"/>
<path class="st0" d="M174.7,214.3c0,15.3,0.1,29.6-0.2,43.8c0,1.3-2.6,3.1-4.3,3.8c-25.2,9.1-50.4,18.1-75.6,27.2
	c-4,1.5-8,3.4-11.5,5.9c-4.3,3.1-3.8,7.2,1,9.3c4.4,1.9,9.2,3.2,13.9,3.6c13.4,1.2,26.6-0.4,39.3-5.1c10.4-3.9,21-7.6,31.5-11.4
	c1.7-0.6,3.4-1,5.5-1.7c0.2,1.9,0.4,3.1,0.4,4.4c0,10.7-0.1,21.3,0.1,32c0.1,3.6-1.1,4.7-4.7,5.3c-43.4,7.6-85.9,4.1-127.7-9.9
	c-6.8-2.3-13.4-5-19.6-8.5c-4.2-2.4-8.1-6-11.1-9.8c-6.2-7.9-5.6-17.5,1.8-24.3c4.1-3.8,8.8-7.3,13.9-9.6
	c14.1-6.4,28.3-12.5,42.8-17.8c32.5-11.9,65.2-23.4,97.8-35C169.9,215.7,171.8,215.2,174.7,214.3L174.7,214.3z"/>
</svg>
