<?xml version="1.0" encoding="utf-8"?>
<!-- Generator: Adobe Illustrator 26.5.2, SVG Export Plug-In . SVG Version: 6.00 Build 0)  -->
<svg version="1.1" id="Layer_1" xmlns="http://www.w3.org/2000/svg" xmlns:xlink="http://www.w3.org/1999/xlink" x="0px" y="0px"
	 viewBox="0 0 317.5 82.9" style="enable-background:new 0 0 317.5 82.9;" xml:space="preserve">
<g>
	<path d="M211.1,82.9c-1.6-1.7-3.3-3.4-5-5.1c-0.3-0.3-0.9-0.4-1.4-0.4c-16,0-32,0-48.1,0c-0.6,0-1.3,0.3-1.8,0.8
		c-0.9,0.8-1.6,1.8-2.4,2.7c-0.5-0.4-0.7-0.5-0.9-0.7c-1.7-2.6-4.2-2.9-7.1-2.9c-14.8,0.1-29.5,0.1-44.2,0c-1.1,0-1.9,0.3-2.6,1.1
		c-1.4,1.5-2.8,3-4.2,4.4H93c-0.2-0.3-0.3-0.6-0.6-1.1c1.4-1.3,2.8-2.6,4.3-4c-2.3-0.8-2.7-0.7-5.5,1.8c-0.2-0.2-0.5-0.5-0.8-0.8
		c0.3-0.4,0.6-0.8,1.1-1.3c-0.6-0.1-1-0.1-1.4-0.1c-0.2,0-0.4,0-0.6,0c-2.5,0-5.2-0.6-7.4,0.2c-2.2,0.8-3.8,3-5.8,4.6
		c-0.7-0.3-0.8-0.7-0.1-1.4c1.1-1,2.1-2.1,3.5-3.4c-1.9,0-3.3,0-4.8,0c-1.6,0-3.2,0-4.8,0c-0.4,0-0.8-0.3-1.2-0.5
		c0.1-0.2,0.1-0.4,0.2-0.6c0.6,0,1.1-0.1,1.7-0.1c6.2,0,12.4-0.1,18.6,0c2.4,0.1,4.5-0.1,5.9-2.3c0.5-0.7,1.1-0.8,1.5,0.2
		c-0.5,0.6-1.1,1.1-1.6,1.8c3,1.4,4.2-1.2,6.1-2.7c0.3,0.3,0.5,0.5,0.8,0.8c-0.7,0.8-1.3,1.4-2.1,2.2c0.9,0,1.4,0,1.9,0
		c14.7,0,29.4,0,44.1,0c1.9,0,3.5-0.3,4.7-1.9c0.4-0.6,0.9-1.1,1.2-1.6c0.4,0.2,0.6,0.2,0.6,0.3c1.9,2.8,4.6,3.2,7.8,3.2
		c13.9-0.2,27.7-0.1,41.6-0.1c0.7,0,1.4,0,2.5,0c-0.8-0.9-1.3-1.5-2.2-2.5c0.8,0,1.2-0.1,1.6,0c0.3,0.1,0.6,0.4,0.8,0.8
		c1.1,1.7,2.7,1.9,4.8,1.5c-0.6-0.7-1.2-1.3-1.7-1.9c0-0.2,0-0.3,0-0.4c0.4,0,1.1-0.1,1.2,0.1c1.6,2.4,4,2.4,6.6,2.4
		c6-0.1,12.1,0,18.1,0c0.5,0,1,0,1.6,0c0.1,0.2,0.1,0.4,0.2,0.5c-0.4,0.2-0.8,0.6-1.2,0.6c-2.4,0.1-4.9,0-7.3,0
		c-0.6,0-1.1,0.1-2.1,0.1c1.6,1.4,3,2.6,4.3,3.7l-0.4,0.8c-0.4-0.1-1,0-1.3-0.2c-1.2-1.1-2.2-2.3-3.4-3.3c-0.6-0.5-1.5-1-2.3-1
		c-2.9-0.1-5.7-0.1-8.8-0.1c0.5,0.6,0.8,1.1,1.2,1.7c-0.2,0.2-0.5,0.5-0.8,0.8c-1.5-1.8-2.9-3.2-5.7-2.1c1.2,1.1,2.3,2.2,3.4,3.2
		c0.7,0.6,0.9,1.2,0.4,2L211.1,82.9L211.1,82.9z M151.8,78.7c1-0.7,1.8-1.3,2.5-1.8c-0.8-0.9-1.4-1.6-2.1-2.4
		c-0.8,0.8-1.5,1.6-2.2,2.4C150.6,77.6,151.3,78.2,151.8,78.7z"/>
	<path d="M14.5,0c-1.2,0.9-1.8,2.8-4,2.4C11.3,1.5,12,0.8,12.6,0C13.3,0,13.9,0,14.5,0L14.5,0z"/>
	<path d="M25.6,0c-1.1,0.9-1.8,2.7-3.9,2.4c0.7-0.9,1.4-1.6,2-2.4C24.4,0,25,0,25.6,0z"/>
	<path d="M285,0c-1.2,0.9-1.7,2.8-3.9,2.4c0.7-0.9,1.4-1.6,2-2.4C283.8,0,284.4,0,285,0L285,0z"/>
	<path d="M307.3,0c-1.1,1-1.7,2.7-3.8,2.4c0.7-0.9,1.3-1.7,1.9-2.4C306,0,306.6,0,307.3,0L307.3,0z"/>
	<path d="M10.7,0C9.6,0.9,9,2.7,6.9,2.4C7.6,1.5,8.2,0.8,8.8,0C9.5,0,10.1,0,10.7,0L10.7,0z"/>
	<path d="M273.9,0c-1.2,0.9-1.7,2.8-3.9,2.4c0.7-0.9,1.4-1.6,2-2.4C272.7,0,273.3,0,273.9,0z"/>
	<path d="M270.1,0c-1.1,0.9-1.7,2.7-3.9,2.1c0.8-0.7,1.5-1.4,2.3-2.1C269.1,0,269.6,0,270.1,0z"/>
	<path d="M281.2,0c-1.1,1-1.6,2.7-4.1,2.3c1-0.9,1.7-1.6,2.5-2.3C280.2,0,280.7,0,281.2,0z"/>
	<path d="M21.8,0c-1.1,1-1.7,2.7-3.8,2.4c0.7-0.9,1.3-1.6,1.9-2.4C20.6,0,21.2,0,21.8,0z"/>
	<path d="M311.1,0c-0.7,0.7-1.4,1.5-2.1,2.1c-0.4,0.3-1,0.3-1.7,0.2c0.6-0.8,1.3-1.5,1.9-2.3C309.8,0,310.4,0,311.1,0z"/>
	<path d="M314.6,0c-1,1.1-1.7,2.6-3.8,2.4c0.8-0.9,1.5-1.7,2.2-2.4C313.5,0,314,0,314.6,0L314.6,0z"/>
	<path d="M277.4,0c-1,1.1-1.6,2.7-3.8,2.4c0.8-0.9,1.5-1.6,2.2-2.4C276.4,0,276.9,0,277.4,0z"/>
	<path d="M266.3,0c-1,1.1-1.6,2.7-3.8,2.4c0.8-0.9,1.5-1.6,2.2-2.4C265.2,0,265.8,0,266.3,0z"/>
	<path d="M262.5,0c-0.9,1.2-1.6,2.6-3.7,2.4c0.8-0.9,1.4-1.7,2.1-2.4C261.4,0,262,0,262.5,0z"/>
	<path d="M29.1,0c-0.9,1.1-1.6,2.6-3.7,2.4c0.8-0.9,1.5-1.7,2.1-2.4C28.1,0,28.6,0,29.1,0z"/>
	<path d="M18,0c-1.6,2.2-2,2.4-3.7,2.4c0.8-0.9,1.5-1.6,2.1-2.4C17,0,17.5,0,18,0z"/>
	<path d="M32,0c0.2,0.2,0.5,0.4,0.5,0.5c-0.2,0.9-2.1,2-3.4,1.9c0.8-0.9,1.6-1.7,2.3-2.4C31.6,0,31.8,0,32,0z"/>
	<path d="M317.4,0.6c-0.7,0.8-1,2.3-2.8,1.6c0.8-0.8,1.5-1.5,2.2-2.3C317,0.2,317.2,0.4,317.4,0.6L317.4,0.6z"/>
	<path d="M303.5,0c-0.6,0.7-1.3,1.5-1.9,2.2c-1.2-1.1-0.1-1.6,0.3-2.2C302.4,0,302.9,0,303.5,0z"/>
	<path d="M308.7,70.7c-0.8,0-1.3,0.1-1.8,0.1c-6.7,0-13.3,0-20,0c-1.4,0-1.9-0.5-2.3-1.7c-5.7-16.3-11.5-32.5-17.3-48.8
		c-0.1-0.3-0.2-0.6-0.5-1.3c0,0.9-0.1,1.3-0.1,1.7c0,12,0,24,0,36c0,4.2,1.9,7.8,3.1,11.5c0.2,0.7,0.5,1.5,0.8,2.4H253
		c0.9-2.5,1.9-4.9,2.6-7.5c0.6-2.2,1.2-4.4,1.2-6.6c0.1-11.6,0-23.2,0.1-34.8c0-4.1-0.5-8.1-2.1-11.9c-0.7-1.6-1.2-3.2-1.8-5
		c0.6,0,1.1-0.1,1.6-0.1c8.5,0,17,0,25.6,0c1.3,0,1.8,0.4,2.2,1.6c5.4,15,10.9,29.9,16.4,44.9c0.2,0.5,0.4,1,0.9,1.5
		c0-1.7,0-3.3,0-5c0-8.2-0.1-16.5,0-24.8c0.1-5-0.6-9.8-2.6-14.4c-0.5-1.2-0.9-2.4-1.4-3.7h16.8c-0.4,1.2-0.7,2.4-1.2,3.5
		c-2.1,4.6-2.7,9.4-2.6,14.5c0.2,15.1,0.1,30.3,0.1,45.4C308.7,69.1,308.7,69.9,308.7,70.7L308.7,70.7z"/>
	<path d="M0.1,4.8c0.8,0,1.2,0,1.7,0c8.5,0,16.9,0,25.4,0c16,0.1,29.9,12.1,32.3,27.9C62.3,51,49.5,68,31.1,70.4
		c-1.6,0.2-3.3,0.3-4.9,0.3c-8.1,0-16.3,0-24.4,0c-0.5,0-0.9,0-1.6,0c0.7-1.6,1.2-3.1,1.9-4.5c1.2-2.6,1.7-5.4,1.7-8.3
		c0-12.8-0.1-25.5,0-38.2c0-4.4-0.6-8.5-2.6-12.4C0.8,6.6,0.5,5.8,0.1,4.8L0.1,4.8z M21.2,62.2c9,0.1,17.5-6.8,18.6-15.6
		c0.6-4.6,0.3-9.4,0.4-14.1c0-6-2.3-11-6.9-14.9c-3.5-2.9-7.5-4.4-12.1-4.4C21.2,13.3,21.2,62.2,21.2,62.2z"/>
	<path d="M200.6,7.9v15.4h-10.9c0-1,0-1.9,0-2.9c0-3.4-1.9-5.6-5.1-6.1c-3.8-0.7-7.9,2.1-8.1,5.9c-0.3,5.9-0.2,11.8,0,17.7
		c0.1,3.4,3.6,6,7.1,5.9c3.5-0.1,6.5-2.9,6.7-6.6c0.1-1.5-0.2-3-0.6-4.5c-0.4-1.5-1-2.9-1.6-4.5h15.5c-0.1,0.3-0.1,0.5-0.2,0.8
		c-2,3.9-2.1,8.1-2,12.4c0.1,3.5,0,7.1,0,10.8c-2.4,0-4.6,0.2-6.8-0.1c-0.7-0.1-1.4-1.1-2.1-1.8c-2-2.2-2-2.2-4.9-1.2
		c-12.2,4.3-25.3-3.2-27.3-16c-2.2-14.1,6.5-23,16.8-24.9c2.4-0.4,4.9-0.5,7.2,0.1c4.9,1.1,9.7,1.1,14.6-0.1
		C199.5,8,200,7.9,200.6,7.9L200.6,7.9z"/>
	<path d="M144.8,35.7c0-4.5-0.1-9.1,0-13.6c0.1-4.2-0.1-8.2-2-12.1c-0.1-0.3-0.2-0.7-0.3-1.1h10.9c-0.5,1.5-1.1,2.9-1.5,4.4
		c-0.4,1.5-0.8,3.1-0.8,4.6c-0.1,9.8,0,19.6,0,29.4v1.7c-0.8,0-1.6,0-2.4,0c-3.9,0-7.8,0-11.7,0c-1.1,0-1.6-0.3-1.9-1.4
		c-3.3-9.2-6.6-18.4-10-27.6c-0.1-0.4-0.3-0.7-0.7-1.1c0,0.5,0,1,0,1.5c0,5.8,0.1,11.5,0,17.3c-0.1,3.3,0.4,6.4,1.8,9.4
		c0.2,0.5,0.4,1,0.7,1.7h-10.9c0-0.3,0-0.5,0.1-0.6c1.9-4,2.3-8.2,2.1-12.5c-0.2-5.4-0.1-10.8,0-16.2c0.1-2.8-0.3-5.5-1.4-8
		c-0.3-0.8-0.6-1.7-0.9-2.7c2.1,0,4.1,0,6,0c3.9,0,7.7,0.1,11.6,0c1.1,0,1.5,0.4,1.9,1.4c2.9,8.1,5.9,16.2,8.8,24.3
		c0.2,0.4,0.3,0.9,0.5,1.3L144.8,35.7L144.8,35.7z"/>
	<path d="M77.4,8.9c5.3,0,10.4,0,15.4,0c0.9,0,1.1,0.6,1.4,1.2c3.9,10,7.7,20.1,11.7,30.1c0.8,2,2,3.8,3,5.7c0.6,1,1.2,1.9,1.9,3.1
		H89.3c0.4-0.8,0.8-1.5,1.2-2.2c1.4-2.6,1.7-5.3,0.8-8.1c-0.1-0.4-0.8-1-1.1-0.9c-4.4,0.7-8.8,1.4-13.2,2.2c-0.7,3.4,0.6,6.2,2.5,9
		H65c0-0.1-0.1-0.3,0-0.3c4.1-5.4,6-11.8,8.4-18c1.3-3.4,2.6-6.9,4-10.3c1.4-3.2,1.7-6.4,0.4-9.7C77.7,10.1,77.6,9.6,77.4,8.9
		L77.4,8.9z M84.2,20.4c-0.1,0-0.3,0-0.4,0c-1.6,4.3-3.2,8.6-4.9,13.1c3.4-0.6,6.5-1.1,9.7-1.7C87.1,27.9,85.7,24.1,84.2,20.4
		L84.2,20.4z"/>
	<path d="M226,32.1v10.3c6.3,0,12.6,0.7,19-2c-0.9,3-1.5,5.5-2.3,8c-0.1,0.3-0.6,0.5-1,0.5c-10.4,0-20.8,0-31.2,0
		c-0.1,0-0.2-0.1-0.4-0.2c0.4-1.2,1-2.5,1.3-3.8c0.4-1.7,0.9-3.4,0.9-5.1c0.1-6.7,0-13.3,0.1-20c0-2.9-0.3-5.7-1.5-8.3
		c-0.3-0.7-0.5-1.5-0.8-2.4c0.7,0,1.2-0.1,1.8-0.1c9.8,0,19.7,0,29.5,0c1.1,0,1.6,0.2,1.9,1.3c0.6,2.3,1.3,4.6,2.1,7.4
		c-6.4-2.5-12.7-2-19.1-1.9V26h12.1v6.1L226,32.1L226,32.1z"/>
	<path d="M199.6,67.3c-1.1,0.5-1.6,0.1-1.7-0.9c-0.1-1.3-0.3-2.6-0.5-4.3c-0.8,1.4-1.4,2.4-2.2,3.6c-0.7-1.2-1.3-2.2-2.1-3.6
		c-0.2,1.7-0.5,3-0.6,4.3c-0.1,1.1-0.6,1.4-1.7,1c0.4-2.7,0.7-5.3,1.1-8c1.3-0.7,1.6,0.3,2,1c0.4,0.7,0.8,1.5,1.3,2.5
		c0.6-1.1,1.1-2.1,1.7-3c0.2-0.3,0.7-0.7,1.1-0.7c0.3,0,0.7,0.6,0.7,1C198.9,62.5,199.2,64.9,199.6,67.3L199.6,67.3z"/>
	<path d="M222.5,59c3.1,0.5,3,3.6,5,4.9v-4.7c0.6,0,1.1-0.1,1.6-0.1v8.6c-2.7-1-3-3.9-5-5.5v5c-0.1,0.1-0.3,0.2-0.4,0.4
		c-0.4-0.3-1.1-0.6-1.1-0.9C222.5,64.2,222.5,61.8,222.5,59L222.5,59z"/>
	<path d="M181.8,67.7c-2.9-1-3.1-4-5.1-5.5c0,1.5,0,2.8,0,4.2c0,1-0.4,1.3-1.4,1v-8c0.9-0.5,1.5-0.2,2,0.7c0.9,1.4,1.8,2.7,2.9,3.9
		v-4.5c1-0.4,1.6-0.5,1.6,0.8C181.8,62.5,181.9,64.9,181.8,67.7L181.8,67.7z"/>
	<path d="M82,63.8c0-1.2-0.1-2.5,0-3.8c0-0.3,0.4-0.6,0.7-1c0.3,0.3,0.7,0.6,0.7,0.9c0.1,2.4,0,4.8,0,7.3c-1.9,0.4-2-1.3-2.7-2.1
		c-0.8-0.9-1.4-2-2.4-2.9c0,1.4,0.1,2.8,0,4.1c0,0.4-0.5,0.7-0.7,1.1c-0.3-0.4-0.7-0.7-0.8-1.1c-0.1-2.4,0-4.7,0-7.1
		c1.1-0.5,1.7-0.2,2.2,0.7c0.8,1.3,1.7,2.6,2.6,3.9C81.8,63.9,81.9,63.9,82,63.8L82,63.8z"/>
	<path d="M121,59.1c1.3,0,2.4-0.1,3.6,0c1.9,0.2,3.1,2.2,1.9,3.6c-1.1,1.3-0.6,2.2,0,3.3c0.2,0.4,0.4,0.8,0.6,1.3
		c-1.5,0.7-1.8-0.5-2.3-1.3c-0.5-0.8-0.8-2.1-2.3-1.6c-0.1,0.9-0.2,1.9-0.4,2.8c0,0.1-0.7,0.1-1.1,0.2L121,59.1L121,59.1z
		 M122.5,60.4v2.5c1.1,0,2.6,0.5,2.6-1.2C125.2,60,123.7,60.5,122.5,60.4L122.5,60.4z"/>
	<path d="M210,66.1h4.2c-0.4,0.7-0.7,1.4-0.9,1.4c-1.6,0.1-3.1,0.1-4.8,0.1v-8.4c1.6,0,3.1,0,4.6,0c0.3,0,0.5,0.5,0.8,0.7
		c-0.3,0.2-0.5,0.7-0.8,0.7c-0.9,0.1-1.9,0-2.9,0c0,0.6-0.1,1.1-0.1,1.4c0.9,1,3-0.7,2.9,1.8c-1,0.1-1.9,0.1-2.9,0.2L210,66.1
		L210,66.1z"/>
	<path d="M112.4,67.4h-5.7v-8.2h5.1l0.3,0.4c-0.4,0.3-0.7,0.7-1.2,0.9c-0.4,0.2-0.9,0.1-1.4,0c-1.2-0.1-1.7,0.4-1.3,1.4
		c0.8,1,3-0.7,2.9,1.8c-1,0-1.9,0.1-2.9,0.2v1.8C109.4,66.8,111.7,64.9,112.4,67.4L112.4,67.4z"/>
	<path d="M156.1,67.3c-1,0.4-1.7,0.2-1.9-0.8c-0.2-1.1-0.9-1.1-1.8-1.1c-0.8,0-1.6,0-1.8,1.1c-0.2,1-0.9,1.2-1.9,0.8
		c0.9-2.5,1.8-5.1,2.7-7.6c0.1-0.3,0.6-0.6,0.9-0.6c0.3,0,0.9,0.3,1,0.6C154.4,62.2,155.3,64.8,156.1,67.3L156.1,67.3z"/>
	<path d="M64.4,63.9V66H68c0.1,0.2,0.2,0.3,0.4,0.5c-0.3,0.3-0.7,1-1,1c-1.5,0.1-2.9,0.1-4.5,0.1v-8.4c1.5,0,3.1,0,4.7,0
		c0.3,0,0.5,0.7,1,1.4h-4.1v1.5c0.8,0.8,2.9-0.8,2.8,1.7C66.3,63.8,65.4,63.9,64.4,63.9L64.4,63.9z"/>
	<path d="M137.3,67.3v-6.2c-0.6-1.1-2.8,0.4-2.3-2c1.8,0,3.6,0,5.4,0c0.3,0,0.7,0.6,1.3,1.3c-1.2,0.1-1.9,0.2-2.8,0.2
		c0,1.9,0,3.8,0,5.7C138.9,67.3,138.6,67.7,137.3,67.3L137.3,67.3z"/>
	<path d="M95.9,67.3c-1.3,0.4-1.6,0-1.6-1c0.1-1.8,0-3.7,0-5.2c-0.7-1-2.8,0.4-2.2-1.9h6c0.2,0.8-0.5,1.3-2.2,1.6V67.3z"/>
	<path d="M241.5,60.7v6.7c-0.5,0-0.9,0.1-1.5,0.1v-6.8c-0.5,0-0.9,0-1.1-0.1c-0.4-0.2-0.8-0.5-1.2-0.8c0.4-0.2,0.8-0.6,1.2-0.6
		c1.4-0.1,2.7-0.1,4.1,0c0.4,0,0.7,0.4,1,0.6c-0.4,0.3-0.7,0.6-1.1,0.8C242.5,60.7,242.1,60.6,241.5,60.7L241.5,60.7z"/>
	<path d="M165.9,67.4c-1,0.3-1.5,0-1.5-1c0.1-2.1,0.1-4.1,0-6.2c0-1.1,0.4-1.3,1.5-1L165.9,67.4L165.9,67.4z"/>
	<path d="M64.8,77c-0.4,0.4-0.9,0.9-1.5,1.5c-0.5-0.6-1-1.2-1.5-1.8c0.5-0.4,1.1-0.8,1.9-1.4C63.9,75.6,64.3,76.2,64.8,77z"/>
	<path d="M240.9,78.3c-0.6-0.6-1.1-1.1-1.6-1.5c0.5-0.6,1-1.2,1.5-1.8c0.6,0.7,1.1,1.2,1.8,1.9C242.1,77.4,241.5,77.8,240.9,78.3
		L240.9,78.3z"/>
	<path d="M179.5,39.7c-0.3-2.3,1.8-2.7,2.4-4C183,36.7,182.8,36.9,179.5,39.7z"/>
	<path d="M245.7,11.1c-0.3-2.2,1.7-2.6,2.4-3.9C248.8,8.6,248.3,9.3,245.7,11.1z"/>
	<path d="M193,4.2c-1.3,0.8-1.7,2.7-3.7,2.3C190.3,4.6,191.6,3.7,193,4.2z"/>
	<path d="M184.9,38.3c-1.4,0.7-1.9,2.7-4,2.6C182.4,38.4,183.6,37.6,184.9,38.3z"/>
	<path d="M311.2,22.2c-0.5-2.2,1.2-2.8,2.2-3.9C313.9,20.4,312.2,20.9,311.2,22.2z"/>
	<path d="M311.2,51.9c-0.5-2.3,1.1-2.8,2.1-4C313.9,50,312.1,50.4,311.2,51.9z"/>
	<path d="M206.1,37.3c0.5,2.3-1.1,2.8-2.2,4C203.4,39.3,205.2,38.9,206.1,37.3z"/>
	<path d="M61.7,21.3c0.9,2.3-1.1,2.5-1.8,3.6C59.1,23.1,61.1,22.8,61.7,21.3z"/>
	<path d="M97,4.3c-1.2,0.9-1.7,2.6-3.8,2.1C94.4,5.4,94.9,3.8,97,4.3z"/>
	<path d="M133,4.2c-1.4,0.9-1.8,2.7-3.9,2.2C130.2,5.3,130.8,3.8,133,4.2z"/>
	<path d="M186.9,3c-1.5,1-2,2.8-4.3,2.3C184.1,4.4,184.5,2.6,186.9,3z"/>
	<path d="M205.5,4.9c0.1,1.9-0.2,2.3-2.3,3.7C202.8,6.7,204.4,6.2,205.5,4.9z"/>
	<path d="M89.5,6.4c1.1-1,1.7-2.5,4-2.2C92,5.1,91.6,6.8,89.5,6.4z"/>
	<path d="M311.2,62.6c-0.4-2,1.2-2.4,2.1-3.5C313.7,60.6,313.5,60.9,311.2,62.6z"/>
	<path d="M311.2,44.4c-0.4-2.2,1.1-2.8,2.2-3.9C313.9,42.6,312.1,43.1,311.2,44.4z"/>
	<path d="M64.2,30.5c0.3,1.4,0,1.9-2.1,3.4C61.8,32.5,61.9,32.2,64.2,30.5z"/>
	<path d="M247.4,4.5c0.7,2.1-1.6,2.4-2.3,3.6C244.4,6.1,246.6,5.7,247.4,4.5z"/>
	<path d="M153.7,20.3c-0.5-1.9,1.2-2.4,2-3.5C156.2,18.3,155.9,18.9,153.7,20.3z"/>
	<path d="M180.8,25.8c0.5,2.1-1.2,2.6-2.2,3.8C178.1,27.5,179.9,27,180.8,25.8z"/>
	<path d="M136.6,4.2c-1.2,1-1.7,2.6-3.9,2.2C134,5.4,134.5,3.8,136.6,4.2z"/>
	<path d="M153.7,31.7c-0.5-2.2,1.1-2.7,2.2-3.9C156.3,29.9,154.6,30.4,153.7,31.7z"/>
	<path d="M196.4,4.8c-1.1,0.7-2.2,1.4-3.3,2.1c-0.1-0.2-0.2-0.3-0.3-0.5c1.1-0.8,1.5-2.5,3.3-2.1C196.2,4.5,196.3,4.6,196.4,4.8
		L196.4,4.8z"/>
	<path d="M311.2,33.3c-0.6-2.2,1.2-2.7,2.1-4.1C313.9,31.5,312.1,32,311.2,33.3z"/>
	<path d="M129,40c0.8,1.8-1.1,2-1.8,3C126.5,41.2,128.3,40.9,129,40z"/>
	<path d="M109.9,43c-0.8-1.9,1.1-2.1,1.6-3.2C112.5,40.9,112.4,41.1,109.9,43z"/>
	<path d="M185.7,5.8c1.6-0.8,1.9-2.9,4-2.3C188.6,4.4,188.2,6.5,185.7,5.8z"/>
	<path d="M311.2,40.7c-0.5-2.2,1.2-2.7,2.2-3.9C313.8,38.8,312.2,39.3,311.2,40.7z"/>
	<path d="M32.4,2.8c1.3-1.5,2.5-2.2,3.5-2C34.8,1.7,34.4,3.4,32.4,2.8z"/>
	<path d="M154.9,6.3c1.3-0.8,1.7-2.3,3.2-2.2C157.7,6,156.9,6.6,154.9,6.3z"/>
	<path d="M153.7,39c-0.5-2,1.2-2.5,2.2-3.8C156.2,37.3,154.7,37.8,153.7,39z"/>
	<path d="M220,4c-1.4,0.8-1.8,2.7-3.8,2C217.3,5,217.8,3.4,220,4z"/>
	<path d="M178.9,36.6c-0.5-1.9,1.2-2.4,2.2-3.8C181.8,35.1,179.7,35.4,178.9,36.6z"/>
	<path d="M240.7,24.8c-0.8-2.1,1.1-2.5,1.9-3.8C243.3,23.2,241.5,23.6,240.7,24.8z"/>
	<path d="M311.2,55.4c-0.4-2.2,1.2-2.7,2.3-3.9C313.9,53.7,312.1,54.2,311.2,55.4z"/>
	<path d="M63.6,27.3c0.7,1.9-1.2,2.2-2,3.3C60.9,28.7,63,28.4,63.6,27.3z"/>
	<path d="M271.3,41.6c0.5,2.1-1.2,2.5-2,3.8C268.7,43.3,270.4,42.8,271.3,41.6z"/>
	<path d="M60.8,27.7c-0.5-1.9,1.2-2.3,2.1-3.6C63.5,26.4,61.6,26.7,60.8,27.7z"/>
	<path d="M269.3,56.4c-0.5-2,1.1-2.5,2-3.7C271.8,54.8,270.2,55.3,269.3,56.4z"/>
	<path d="M238.2,37.5c-1.3,0.9-1.8,2.5-4,2.1C235.5,38.7,235.9,37,238.2,37.5z"/>
	<path d="M227.2,6c1.2-1,1.7-2.6,3.9-2.1C229.8,4.8,229.4,6.4,227.2,6z"/>
	<path d="M38.6,1.7c-0.9,0.7-1.2,2.7-3.2,1.7C36.5,2.6,36.9,1,38.6,1.7z"/>
	<path d="M203.3,12.5c-0.4-2.2,1.2-2.7,2.2-3.9C205.9,10.7,204.3,11.2,203.3,12.5z"/>
	<path d="M178.8,33.4c-0.6-2.3,1.2-2.7,2.1-4.2C181.5,31.5,179.6,31.9,178.8,33.4z"/>
	<path d="M233,21.3c-1.2,0.9-1.6,2.5-3.6,2C230.5,22.4,230.9,20.8,233,21.3z"/>
	<path d="M129.2,4.2c-1.3,0.9-1.8,2.6-3.8,2.2C126.5,5.3,127.1,3.9,129.2,4.2z"/>
	<path d="M151.3,6.4c1.3-1.1,1.9-2.7,4-2.2C154,5.1,153.5,6.8,151.3,6.4z"/>
	<path d="M311.2,37c-0.5-2.2,1.2-2.7,2.2-3.9C313.9,35.2,312.1,35.6,311.2,37z"/>
	<path d="M155.9,13c0.5,2.2-1.2,2.6-2.2,3.8C153.3,14.8,154.8,14.2,155.9,13z"/>
	<path d="M311.2,18.5c-0.5-2.2,1.2-2.7,2.1-4.1C313.9,16.7,312.1,17.1,311.2,18.5z"/>
	<path d="M57.6,14.8c0.9,1.8-1,2-1.3,2.9C55.2,16.8,55.3,16.6,57.6,14.8z"/>
	<path d="M311.2,29.5c-0.5-2.1,1.3-2.5,2.2-3.9C313.8,27.8,312.2,28.3,311.2,29.5z"/>
	<path d="M125.4,4.2c-1.2,0.9-1.6,2.6-3.8,2.2C122.8,5.4,123.3,3.8,125.4,4.2z"/>
	<path d="M182.6,3.4c-1,0.8-1.6,2.3-3.9,1.7c1.4-0.9,2.5-1.6,3.5-2.2C182.4,3.1,182.5,3.3,182.6,3.4L182.6,3.4z"/>
	<path d="M205.5,12.3c0.4,2.1-1.2,2.6-2.2,3.9C202.8,14.1,204.5,13.6,205.5,12.3z"/>
	<path d="M153.7,24c-0.5-1.9,1.2-2.3,2-3.4C156.2,22,155.9,22.5,153.7,24z"/>
	<path d="M230.5,35.9c0.1,1.8-0.2,2.3-2.2,3.6C227.8,37.7,229.5,37.2,230.5,35.9z"/>
	<path d="M313.5,22.1c0.4,1.9-1.3,2.4-2.1,3.6C310.9,24.1,311.1,23.8,313.5,22.1z"/>
	<path d="M242.6,3.9c-1.3,1-1.8,2.6-3.9,2.2C239.9,5.1,240.4,3.5,242.6,3.9z"/>
	<path d="M178.4,21.4c0.7-1,1.5-2.1,2.4-3.4c0.5,2.3-1,2.8-1.8,3.8C178.8,21.7,178.6,21.6,178.4,21.4L178.4,21.4z"/>
	<path d="M236.4,21.4c-1.3,1.8-1.7,2.1-3.1,2.1C234.1,21.8,235,21.1,236.4,21.4z"/>
	<path d="M313.4,44.1c0.5,2.2-1.2,2.7-2.1,3.9C310.6,45.9,312.4,45.4,313.4,44.1z"/>
	<path d="M103,19c0.3,0.7-0.1,1.6-1.3,2.8C100.7,20.8,100.9,20.5,103,19z"/>
	<path d="M44.4,3.8c-1.3,0.6-1.5,2.4-3.5,1.6C42,4.6,42.3,3,44.4,3.8z"/>
	<path d="M311.2,59.1c-0.5-2.1,1.1-2.6,2.2-3.9C313.9,57.4,312.1,57.9,311.2,59.1z"/>
	<path d="M203.9,45.2c-0.5-2.2,1.3-2.7,2.2-4C206.6,43.4,204.9,43.9,203.9,45.2z"/>
	<path d="M206.2,34.1c0.4,2-1.3,2.4-2.1,3.6C203.6,36.1,203.8,35.8,206.2,34.1z"/>
	<path d="M109.1,34.6c0.9,2.1-0.9,2.3-1.4,3.5C106.6,36.2,108.5,35.9,109.1,34.6z"/>
	<path d="M242.7,24.6c0.6,2.2-1.1,2.6-1.9,3.9C240.1,26.3,241.9,26,242.7,24.6z"/>
	<path d="M156.3,24.7c-0.8,1-1.5,2-2.4,3.2c-0.4-1.7-0.2-2,1.9-3.5C156,24.5,156.2,24.6,156.3,24.7z"/>
	<path d="M89.5,4.2c-1.2,1-1.7,2.6-3.9,2.2C86.8,5.4,87.4,3.8,89.5,4.2z"/>
	<path d="M155.8,31.4c0.6,2.2-1.2,2.6-2,4C153.2,33.2,154.9,32.8,155.8,31.4z"/>
	<path d="M99.8,10.9c0.8,1.7-0.8,2-1.5,3C97.4,12,99.4,11.9,99.8,10.9z"/>
	<path d="M155.9,39.1c0.4,1.9-1.3,2.3-2,3.5C153.4,41,153.6,40.8,155.9,39.1z"/>
	<path d="M85.9,4.2c-1,0.9-1.8,1.7-2.8,2.6C82.8,5,83.8,4.1,85.9,4.2z"/>
	<path d="M46.7,5.2c-1.2,0.4-1.4,2.5-3.3,1.2C44.5,6,44.7,4,46.7,5.2z"/>
	<path d="M271.4,65.6c-1-2,0.8-2.2,1.2-3.4C273.8,64.3,271.9,64.4,271.4,65.6z"/>
	<path d="M50.2,11.1c0.8-0.6,1-2.4,2.9-1.2C52,10.4,51.7,12.1,50.2,11.1z"/>
	<path d="M60.4,19.4c0.9,1.8-1,2-1.6,3.4C57.9,20.6,59.8,20.4,60.4,19.4z"/>
	<path d="M269.5,59.8c-0.3-0.9,0.3-2,1.7-3.1C271.8,57.9,271.8,57.9,269.5,59.8z"/>
	<path d="M106,26.6c0.9,2.1-0.8,2.3-1.4,3.4C103.5,28.1,105.5,27.9,106,26.6z"/>
	<path d="M59.1,17.1c0.3,0.6-0.1,1.6-1.5,2.9C56.7,19,56.9,18.6,59.1,17.1z"/>
	<path d="M286.2,10c-1-1.9,0.7-2.1,1.3-3.1C288.5,8.7,286.9,9,286.2,10z"/>
	<path d="M108.2,32.4c0.5,1.2,0.3,1.5-1.5,2.7C106.1,33.9,106.2,33.7,108.2,32.4z"/>
	<path d="M151.3,4.2c-1.2,1.5-2.3,2.2-3.1,2.2C148.7,4.8,149.6,4.1,151.3,4.2z"/>
	<path d="M293.7,23.4c0.8,1.6-0.9,1.9-1.3,2.8C291.5,24.9,291.6,24.8,293.7,23.4z"/>
	<path d="M245.6,4c-1.8,2.2-1.8,2.2-3.3,2C243.7,4,244.1,3.7,245.6,4z"/>
	<path d="M310.9,65.4c0.8-0.9,1.5-1.8,2.4-2.7c0.4,1.6-0.2,2.5-2,3.1C311.2,65.7,311,65.5,310.9,65.4L310.9,65.4z"/>
	<path d="M98.9,8.2c0.5,1.3,0.5,1.4-1.5,2.9C97,10.3,97.5,9.4,98.9,8.2z"/>
	<path d="M230.5,39.6c1.3-1,1.7-2.7,3.8-2.1C233.2,38.5,232.7,40,230.5,39.6z"/>
	<path d="M142.6,15.9c-0.5,0.8-1,1.7-1.5,2.7c-0.6-0.9-0.2-1.9,1-2.9C142.3,15.8,142.5,15.9,142.6,15.9L142.6,15.9z"/>
	<path d="M139.2,7.3c0.9,1.8-0.7,2.1-1.3,3C136.8,8.6,138.6,8.4,139.2,7.3z"/>
	<path d="M230.9,6c1.2-1,1.7-2.5,3.9-2.1C233.5,4.8,233.1,6.4,230.9,6z"/>
	<path d="M180.8,22.2c0.5,2-1.1,2.5-2,3.7C178.2,23.8,179.8,23.3,180.8,22.2z"/>
	<path d="M223.6,6c1.1-1,1.6-2.5,3.8-2.1C226.1,4.8,225.7,6.5,223.6,6z"/>
	<path d="M295,34.2c-0.7-1.6,0.8-1.9,1.4-2.8C297.1,32.7,297,32.9,295,34.2z"/>
	<path d="M108.7,40.6c-1.1-1.7,1-1.9,1.3-2.9C111.1,38.5,111.1,38.6,108.7,40.6z"/>
	<path d="M234.6,6c1.3-1,1.8-2.6,3.8-2C237.2,4.8,236.8,6.5,234.6,6z"/>
	<path d="M64.3,38.4c-0.6,1-1.3,2-1.9,3c-0.2-0.1-0.5-0.3-0.7-0.4c0.6-1,1.3-2,1.9-3C63.9,38.1,64.1,38.2,64.3,38.4z"/>
	<path d="M236.7,23.4c1.2-0.9,1.6-2.6,3.7-2C239.2,22.2,238.7,23.8,236.7,23.4z"/>
	<path d="M219.9,6c1.2-0.9,1.6-2.5,3.7-2.1C222.4,4.8,221.9,6.5,219.9,6z"/>
	<path d="M38.2,4.2c1.2-0.6,1.4-2.5,3.5-1.6C40.5,3.3,40.2,5.2,38.2,4.2z"/>
	<path d="M271.3,45.3c0.4,2.1-1.1,2.6-2,3.7C268.7,47,270.4,46.6,271.3,45.3z"/>
	<path d="M269.3,52.5c-0.2-0.9,0.4-2,1.8-3.2C271.7,50.6,271.5,51,269.3,52.5z"/>
	<path d="M228.3,22.3c-0.5-2.1,1.1-2.5,2.1-3.8C230.9,20.6,229.3,21.1,228.3,22.3z"/>
	<path d="M289.2,17.9c-0.6-1.2-0.6-1.2,1.3-2.7C291,16,290.5,16.9,289.2,17.9z"/>
	<path d="M293.2,28.8c-0.4-0.8,0-1.6,1.2-2.6C295.1,27.3,295.1,27.3,293.2,28.8z"/>
	<path d="M100.4,19.2c-0.3-0.8,0.1-1.8,1.5-2.9C102.3,17,101.8,18,100.4,19.2z"/>
	<path d="M64.3,33.9c0.6,2-1.1,2.5-1.9,3.8C61.7,35.6,63.4,35.1,64.3,33.9z"/>
	<path d="M286.7,4.3c0.8,1.7-0.9,2-1.4,2.9C284.6,5.9,284.6,5.9,286.7,4.3z"/>
	<path d="M138.9,13.1c-1-1.8,0.6-2,1.2-3.2C141.1,11.8,139.6,12.1,138.9,13.1z"/>
	<path d="M107.2,29.5c0.8,1.8-0.9,2-1.4,3C105.2,31.8,105.7,30.8,107.2,29.5z"/>
	<path d="M290.2,20.9c-1-1.8,0.8-2.1,1.3-3.1C292.6,19.5,290.9,19.8,290.2,20.9z"/>
	<path d="M105.1,24.1c0.9,1.9-0.9,2.2-1.5,3.3C102.6,25.4,104.5,25.2,105.1,24.1z"/>
	<path d="M288.6,9.6c0.9,1.9-0.7,2.2-1.4,3.2C286.3,10.9,287.9,10.6,288.6,9.6z"/>
	<path d="M96.4,8.8c-1.3-2.2,1-2.2,1.2-3.8C98.9,7.3,96.8,7.5,96.4,8.8z"/>
	<path d="M187.4,39.5c-1,0.7-2,1.4-3,2.1c-0.1-0.2-0.2-0.3-0.4-0.5c1-0.7,1.4-2.2,3-2.1L187.4,39.5L187.4,39.5z"/>
	<path d="M203.5,25.6c1.1-1.2,1.6-2.5,3.5-2.1C205.9,24.4,205.5,25.8,203.5,25.6z"/>
	<path d="M269.4,41.5c-0.6-1.7,0.7-2.2,1.6-3.2C271.9,40.3,269.9,40.4,269.4,41.5z"/>
	<path d="M238.4,39.3c0.9-0.8,1.4-2.2,3.2-1.5c-1,0.6-2,1.3-3,1.9C238.6,39.5,238.5,39.4,238.4,39.3L238.4,39.3z"/>
	<path d="M104,21.6c0.3,0.8-0.1,1.8-1.4,2.9C102.1,23.7,102.6,22.8,104,21.6z"/>
	<path d="M52.9,13.8c-0.4-0.5-0.7-0.7-1-1.1c0.5-0.5,1-1,1.5-1.4c0.2-0.2,0.6-0.1,0.9-0.2c0,0.3,0,0.8-0.2,1
		C53.9,12.8,53.4,13.2,52.9,13.8L52.9,13.8z"/>
	<path d="M100.9,13.3c0.5,1.5,0.4,1.7-1.6,3.2C98.4,14.8,100.2,14.5,100.9,13.3z"/>
	<path d="M47.9,9.2c0.6-0.5,1.1-1,1.7-1.4c0.2-0.1,0.6,0,0.9,0.1c0,0.3,0,0.6-0.2,0.8C49.5,9.9,49,10.1,47.9,9.2L47.9,9.2z"/>
	<path d="M205,3.6l-2.8,1.7c-0.1-0.2-0.3-0.4-0.4-0.6c0.9-0.6,1.9-1.2,2.8-1.8C204.7,3.1,204.9,3.4,205,3.6z"/>
	<path d="M295.6,28.8c0.9,1.6-0.9,1.8-1.3,2.9C293.6,30.3,293.6,30.2,295.6,28.8z"/>
	<path d="M54.2,15.6c0-0.4-0.2-0.9,0-1.1c0.5-0.6,1.2-1,1.8-1.5c0.1,0.4,0.3,0.9,0.1,1.1c-0.3,0.6-0.9,1.1-1.3,1.6L54.2,15.6
		L54.2,15.6z"/>
	<path d="M46.1,7.9c0.8-0.6,1-2.4,2.8-1.4C47.8,7.1,47.6,8.9,46.1,7.9z"/>
	<path d="M203.4,18.4c0.7-0.8,1.3-1.5,2-2.2C205.7,18.1,205.2,18.6,203.4,18.4z"/>
	<path d="M111.3,44.1c0.6-0.6,1.2-1.3,2-2.2c0.1,0.7,0.3,1.2,0.1,1.4c-0.6,0.5-1.3,0.8-1.9,1.2L111.3,44.1L111.3,44.1z"/>
	<path d="M289.6,12.3c1,1.9-0.8,2.1-1.4,3.3C287.4,13.6,288.9,13.3,289.6,12.3z"/>
	<path d="M271.8,59.7c0.9,1.8-0.7,2.1-1.4,3.2C269.5,61,271.1,60.7,271.8,59.7z"/>
	<path d="M139.8,15.9c-0.9-1.8,0.7-2,1.4-3.1C142,14.5,140.5,14.9,139.8,15.9z"/>
	<path d="M138.2,4.7c1.1,1.8-0.8,2-1.2,3C135.8,5.9,137.6,5.6,138.2,4.7z"/>
	<path d="M285.5,1.4c1.1,1.9-0.7,2.1-1.2,3.2C283.1,2.8,285,2.5,285.5,1.4z"/>
	<path d="M291.3,23.3c-1.2-1.6,0.6-1.8,1.1-2.9C293.7,22.2,291.6,22.4,291.3,23.3z"/>
	<path d="M206.1,45.3c0.3,1.7-0.1,2.1-2.1,2C204.7,46.6,205.4,45.9,206.1,45.3z"/>
	<path d="M197.2,5.5c0.9-0.6,1.8-1.1,2.8-1.7c0.1,0.2,0.3,0.5,0.4,0.7c-0.9,0.5-1.9,1.1-2.9,1.6C197.4,6,197.3,5.7,197.2,5.5
		L197.2,5.5z"/>
	<path d="M127.9,36.7c1.1,1.8-0.3,2.1-0.8,2.8c-0.2-0.1-0.3-0.2-0.5-0.2C127,38.6,127.3,37.8,127.9,36.7z"/>
	<path d="M63,43.1c-0.5,0.9-0.9,1.8-1.4,2.7c-0.2-0.1-0.4-0.2-0.5-0.3c0.5-0.9,0.9-1.8,1.4-2.7C62.7,42.9,62.8,43,63,43.1z"/>
	<path d="M23.5,46.6c-0.5-2,1.1-2.5,2-3.6C26.1,45,24.4,45.4,23.5,46.6z"/>
	<path d="M25.5,20.7c0.5,2-1.1,2.5-2,3.6C23,22.3,24.7,21.9,25.5,20.7z"/>
	<path d="M25.5,50.3c0.5,2-1.1,2.5-2,3.6C23,51.9,24.6,51.5,25.5,50.3z"/>
	<path d="M23.5,35.4c-0.5-2,1.1-2.5,2.1-3.6C26,33.9,24.4,34.3,23.5,35.4z"/>
	<path d="M23.4,57.4c-0.5-1.8,1.1-2.2,2-3.3C25.8,55.6,25.4,56.3,23.4,57.4z"/>
	<path d="M23.5,42.9c-0.6-2,1.1-2.4,1.9-3.4C26,41.2,24.4,41.7,23.5,42.9z"/>
	<path d="M23.5,28.1c-0.6-2,1.1-2.5,2-3.8C26,26.4,24.5,27,23.5,28.1z"/>
	<path d="M25.6,46.8c0.5,1.8-1.1,2.2-2,3.3C23.2,48.6,23.6,48,25.6,46.8z"/>
	<path d="M23.5,20.7c-0.5-2.1,1.1-2.5,2-3.7C26,19,24.4,19.5,23.5,20.7z"/>
	<path d="M23.5,31.8c-0.5-2.1,1.1-2.5,2-3.7C26.1,30.1,24.4,30.6,23.5,31.8z"/>
	<path d="M25.5,35.5c0.5,2-1,2.5-2,3.7C23,37.2,24.6,36.7,25.5,35.5z"/>
</g>
</svg>
