<?xml version="1.0" encoding="utf-8"?>
<!-- Generator: Adobe Illustrator 26.5.2, SVG Export Plug-In . SVG Version: 6.00 Build 0)  -->
<svg version="1.1" id="Layer_1" xmlns="http://www.w3.org/2000/svg" xmlns:xlink="http://www.w3.org/1999/xlink" x="0px" y="0px"
	 viewBox="0 0 422.6 319.4" style="enable-background:new 0 0 422.6 319.4;" xml:space="preserve">
<style type="text/css">
	.st0{fill:#FFFFFF;}
</style>
<path class="st0" d="M316.1,319.4h-3.3c-7.3-12-14.6-23.9-22-35.9c12.4-6,23.9-11.6,35.6-17.3c-5.4-7.2-10.2-6.9-17-4.1
	c-65.7,27.3-131.6,27.1-197.2-0.3c-7.1-3-11.3-1.8-16.3,4.5c12.1,5.8,23.5,11.2,35.7,17.1c-7.3,12.1-14.6,24.1-21.9,36h-3.3
	c-2.4-1.1-4.7-2.4-7.1-3.2c-32.7-11-63.1-26.5-91.4-46.2c-4.6-3.2-6.4-6.7-6.4-12.1c-0.1-8.4-1-16.8-1.5-25.2v-6.6
	c0.6-9.7,0.9-19.5,1.9-29.2C7.1,144.5,23.9,96,49.7,50.2c9.8-17.4,22.2-29.2,41.6-34c19.4-4.9,38.5-10.7,57.7-16.1
	c1.1,0,2.2,0,3.3,0c2.7,5.9,5.7,11.6,8.1,17.6c1.7,4.3,3.9,4.8,8.5,4.6c22.5-1.2,45-1.8,67.6-2.1c7.8-0.1,17.5,4.3,22.8,1
	c5.8-3.6,7.5-13.8,11-21.1c1.1,0,2.2,0,3.3,0c0.9,0.5,1.8,1.2,2.8,1.4c26.3,4.5,51.6,12.5,76,23.3c2.6,1.1,5.5,2.9,7,5.1
	c32.3,48,53.7,100.3,60,158.2c1.5,13.2,2.2,26.5,3.2,39.7v4.9c-0.6,8.7-0.6,17.4-1.9,26c-0.6,3.8-2.6,8.7-5.6,10.6
	c-15.8,10.1-31.6,20.4-48.3,28.8C350.5,306.2,333.1,312.3,316.1,319.4L316.1,319.4z M319.4,175.3c0-27.1-22.4-46.7-46.7-40.9
	c-16,3.9-28,19.8-29.4,39c-1.8,24.4,17.5,45.6,40.3,44.5C303.2,216.8,319.4,197.6,319.4,175.3L319.4,175.3z M141.3,217.9
	c17.3,0,33.1-13.7,37-32.2c4.5-21-5.6-42.1-23.6-49.6c-21.7-8.9-44.2,4.3-50.3,29.5C98,191.5,116.6,217.8,141.3,217.9z"/>
</svg>
