<?xml version="1.0" encoding="utf-8"?>
<!-- Generator: Adobe Illustrator 26.5.2, SVG Export Plug-In . SVG Version: 6.00 Build 0)  -->
<svg version="1.1" id="Layer_1" xmlns="http://www.w3.org/2000/svg" xmlns:xlink="http://www.w3.org/1999/xlink" x="0px" y="0px"
	 viewBox="0 0 550 550" style="enable-background:new 0 0 550 550;" xml:space="preserve">
<style type="text/css">
	.st0{fill:#FFFFFF;}
</style>
<g transform="translate(0.000000,550.000000) scale(0.100000,-0.100000)">
	<path class="st0" d="M1365,5154c-481-86-868-442-990-910c-44-169-47-268-42-1579c3-1204,4-1232,24-1325c111-501,467-858,973-976
		c66-15,150-18,691-21c560-4,618-3,633,12s16,208,16,2396c0,1622-3,2386-10,2400c-10,18-27,19-613,18C1571,5168,1428,5165,1365,5154
		z M2270,2754V728l-407,5c-375,4-415,6-490,25c-322,83-561,331-628,654c-22,101-22,2589-1,2688c60,281,255,514,518,619
		c132,53,193,59,621,60l387,1V2754z"/>
	<path class="st0" d="M1451,4169c-63-12-159-60-210-105c-105-91-157-220-149-372c4-79,9-100,41-164c47-97,118-168,215-216
		c67-33,84-37,171-40c79-3,107,0,160,18c217,73,348,284,311,500C1947,4047,1703,4219,1451,4169z"/>
	<path class="st0" d="M3157,5163c-4-3-7-1087-7-2409c0-2181,1-2402,16-2408c27-10,803-6,899,4c406,46,764,293,959,660
		c25,47,58,126,75,175c63,188,61,138,61,1575c0,1147-2,1318-16,1391c-99,521-496,914-1018,1004c-70,12-178,15-526,15
		C3360,5170,3160,5167,3157,5163z M4225,2985c156-41,284-160,336-312c33-94,32-232-1-318c-61-158-181-269-335-310
		c-250-65-516,86-589,334c-22,76-21,204,4,282C3715,2906,3975,3050,4225,2985z"/>
</g>
</svg>
