<?xml version="1.0" encoding="utf-8"?>
<!-- Generator: Adobe Illustrator 26.5.2, SVG Export Plug-In . SVG Version: 6.00 Build 0)  -->
<svg version="1.1" id="Layer_1" xmlns="http://www.w3.org/2000/svg" xmlns:xlink="http://www.w3.org/1999/xlink" x="0px" y="0px"
	 viewBox="0 0 47.3 55.6" style="enable-background:new 0 0 47.3 55.6;" xml:space="preserve">
<style type="text/css">
	.st0{fill:#FFFFFF;}
</style>
<g id="Polygon_1" transform="translate(53) rotate(90)">
	<path class="st0" d="M49.6,52.8H6c-2,0-3.8-1.1-4.8-2.8c-1-1.8-0.9-3.8,0.1-5.6L23.1,8.9c1-1.6,2.8-2.6,4.7-2.6s3.7,1,4.7,2.6
		l21.8,35.5c1.1,1.7,1.1,3.8,0.1,5.6C53.4,51.7,51.6,52.8,49.6,52.8z"/>
	<path class="st0" d="M27.8,6.7c-1.8,0-3.3,0.9-4.3,2.4L1.7,44.6c-1,1.6-1,3.5-0.1,5.1c0.9,1.6,2.5,2.6,4.4,2.6h43.6
		c1.8,0,3.5-1,4.4-2.6c0.9-1.6,0.9-3.5-0.1-5.1L32.1,9.1C31.1,7.6,29.5,6.7,27.8,6.7 M27.8,5.7c2,0,3.9,1,5.1,2.9l21.8,35.5
		c2.5,4-0.4,9.1-5.1,9.1H6c-4.7,0-7.6-5.1-5.1-9.1L22.7,8.6C23.8,6.7,25.8,5.7,27.8,5.7z"/>
</g>
</svg>
