<?xml version="1.0" encoding="utf-8"?>
<!-- Generator: Adobe Illustrator 26.5.2, SVG Export Plug-In . SVG Version: 6.00 Build 0)  -->
<svg version="1.1" id="Layer_1" xmlns="http://www.w3.org/2000/svg" xmlns:xlink="http://www.w3.org/1999/xlink" x="0px" y="0px"
	 viewBox="0 0 369.8 304.3" style="enable-background:new 0 0 369.8 304.3;" xml:space="preserve">
<style type="text/css">
	.st0{fill:#FFFFFF;}
</style>
<path class="st0" d="M4.9,266.7c8.9,0.7,17.9,0.9,26.9,0.2c19.9-1.5,38.7-6.9,56.5-15.8c8.7-4.4,16.8-9.5,24.8-15.8
	c-4.7-0.3-8.9-0.6-13.1-1.6c-27.4-6.2-46.1-22.4-56.3-48.6c-0.9-2.3,0.3-1.9,1.8-1.7c9.8,1.6,19.6,1.2,29.3-1.1
	c0.5-0.1,1-0.1,1.2-0.7c-42.6-10-60.5-47.8-59-74.3c10.4,5.5,21.3,8.7,33.5,9.2c-1.6-1.2-2.7-2.1-3.9-3C29.7,99.9,20,82.4,17.8,60.9
	c-1.5-15.1,1.5-29.3,8.5-42.7c0.9-1.8,1.4-2.1,2.8-0.4C50,43,75.4,62.2,105.1,75.7c19,8.6,38.8,14.3,59.5,17.1
	c5.3,0.7,10.6,1.2,16,1.6c1.7,0.1,1.9-0.3,1.6-1.8c-3-14.4-2-28.6,3.5-42.2c10.6-26,29.8-42.1,57.5-47c25.4-4.4,47.6,3.1,66.2,21.1
	c1,0.9,1.8,1.2,3.1,1c15.6-3.3,30.3-9,44.2-16.9c0.4-0.2,0.8-0.4,1.6-0.9c-6,17.7-16.7,31.1-32,41.1c14.4-1.5,28-5.4,41.4-10.8
	c-2.9,4.9-6.3,9.3-9.9,13.5c-7.6,8.9-16,16.8-25.4,23.7c-0.9,0.7-1.5,1.2-1.4,2.5c0.8,9.3,0.2,18.6-0.7,27.8
	c-1.8,18.6-6,36.6-12.4,54.1c-9.9,27-24.3,51.3-43.6,72.6c-28.7,31.6-63.8,52.2-105.3,61.9c-12,2.8-24.2,4.5-36.5,5.2
	c-22.2,1.4-44.1-0.3-65.8-5.6c-22.5-5.5-43.5-14.4-63.1-26.8C3.6,266,4.4,266.7,4.9,266.7L4.9,266.7z"/>
<path class="st0" d="M4.9,266.7c-0.5,0.2-1.1-0.1-1.5,0.5c-0.2-0.2-0.7-0.3-0.7-0.5c-0.1-0.4,0.3-0.4,0.6-0.4
	C3.9,266.3,4.5,266.3,4.9,266.7L4.9,266.7z"/>
</svg>
