<?xml version="1.0" encoding="utf-8"?>
<!-- Generator: Adobe Illustrator 26.5.2, SVG Export Plug-In . SVG Version: 6.00 Build 0)  -->
<svg version="1.1" id="Layer_1" xmlns="http://www.w3.org/2000/svg" xmlns:xlink="http://www.w3.org/1999/xlink" x="0px" y="0px"
	 viewBox="0 0 88 88" style="enable-background:new 0 0 88 88;" xml:space="preserve">
<style type="text/css">
	.st0{fill:#FFFFFF;}
</style>
<path class="st0" d="M39.7,86.9c-6.6-0.6-13.3-3-19.1-6.8c-4.8-3.2-5.9-4.4-5.9-7c0-5.2,5.7-14.3,15.5-24.7
	c5.5-5.9,13.3-12.8,14.1-12.6c1.6,0.4,14.6,13,19.5,19C71.5,64.3,75,72,73.2,75.4c-1.4,2.6-9.8,7.7-16.1,9.7
	C52,86.8,45.3,87.4,39.7,86.9z M8.2,67.7c-4-6.2-6-12.2-7-21C0.8,43.8,1,42.2,1.9,36.2c1.2-7.4,5.4-16,10.5-21.2
	c2.2-2.2,2.4-2.3,5-1.4c3.2,1.1,6.6,3.4,11.9,8.2l3.1,2.8l-1.7,2.1c-7.8,9.6-16.1,23.2-19.2,31.7c-1.7,4.6-2.4,9.2-1.6,11.1
	C10.3,70.7,9.8,70.2,8.2,67.7L8.2,67.7z M78.6,68.8c0.4-1.9-0.1-5.5-1.3-9.1c-2.5-7.8-11.1-22.2-18.9-32L56,24.5l2.7-2.4
	c3.5-3.2,5.9-5.1,8.5-6.7c2.1-1.3,5-2.4,6.2-2.4c0.8,0,3.5,2.9,5.7,5.9c3.4,4.8,5.9,10.6,7.2,16.7c0.8,3.9,0.9,12.3,0.1,16.2
	c-0.6,3.2-1.9,7.4-3.2,10.2c-1,2.1-3.4,6.2-4.4,7.6C78.3,70.2,78.3,70.2,78.6,68.8L78.6,68.8z M40.4,11.5c-3.6-1.8-9.2-3.8-12.2-4.3
	c-1.1-0.2-2.9-0.3-4.1-0.2c-2.5,0.1-2.4,0,1.6-1.9c3.4-1.6,6.2-2.5,10-3.3c4.3-0.9,12.4-0.9,16.6,0c4.6,1,10,3,13,4.8l0.9,0.6
	L64.3,7c-4.1-0.2-10.1,1.5-16.6,4.6c-1.9,0.9-3.6,1.7-3.8,1.7C43.8,13.2,42.2,12.4,40.4,11.5L40.4,11.5z"/>
</svg>
